# xmcd
#
# Track frame offsets: 
#        150
#        6015
#        18687
#        31283
#        46780
#        54636
#        68715
#        84733
#        105369
#        120166
#        132645
#
# Disc length: 1947 seconds
#
# Revision: 3
# Processed by: cddbd v1.5.2PL0 Copyright (c) Steve Scherf et al.
# Submitted via: ExactAudioCopy v0.99pb4
#
DISCID=8607990b
DTITLE=At The Drive-In - Acrobatic Tenement
DYEAR=1996
DGENRE=Alt. Rock
TTITLE0=Star Slight
TTITLE1=Schaffino
TTITLE2=Ebroglio
TTITLE3=Initiation
TTITLE4=Communication Drive-In
TTITLE5=Skips On The Record
TTITLE6=Paid Vacation Time
TTITLE7=Ticklish
TTITLE8=Blue Tag
TTITLE9=Coating Of Arms
TTITLE10=Porfirio Diaz
EXTD=
EXTT0=
EXTT1=
EXTT2=
EXTT3=
EXTT4=
EXTT5=
EXTT6=
EXTT7=
EXTT8=
EXTT9=
EXTT10=
PLAYORDER=
